<svg xmlns="http://www.w3.org/2000/svg" xmlns:xlink="http://www.w3.org/1999/xlink" width="500" zoomAndPan="magnify" viewBox="0 0 375 374.999991" height="500" preserveAspectRatio="xMidYMid meet" version="1.2"><defs><clipPath id="8e12e13b01"><path d="M 127.679688 86.816406 L 262.261719 86.816406 L 262.261719 208.257812 L 127.679688 208.257812 Z M 127.679688 86.816406 "/></clipPath><clipPath id="53d7d0da43"><path d="M 112.5 119.886719 L 218.316406 119.886719 L 218.316406 208.257812 L 112.5 208.257812 Z M 112.5 119.886719 "/></clipPath></defs><g id="59474b7137"><g style="fill:#000000;fill-opacity:1;"><g transform="translate(63.890625, 255.221863)"><path style="stroke:none" d="M 21 0 L 13.703125 -13.25 L 11.65625 -13.25 L 11.65625 0 L 3.09375 0 L 3.09375 -35.09375 L 17.453125 -35.09375 C 20.210938 -35.09375 22.566406 -34.609375 24.515625 -33.640625 C 26.472656 -32.679688 27.929688 -31.359375 28.890625 -29.671875 C 29.859375 -27.992188 30.34375 -26.117188 30.34375 -24.046875 C 30.34375 -21.710938 29.6875 -19.628906 28.375 -17.796875 C 27.0625 -15.960938 25.117188 -14.664062 22.546875 -13.90625 L 30.65625 0 Z M 11.65625 -19.296875 L 16.953125 -19.296875 C 18.515625 -19.296875 19.6875 -19.675781 20.46875 -20.4375 C 21.257812 -21.207031 21.65625 -22.296875 21.65625 -23.703125 C 21.65625 -25.035156 21.257812 -26.082031 20.46875 -26.84375 C 19.6875 -27.613281 18.515625 -28 16.953125 -28 L 11.65625 -28 Z M 11.65625 -19.296875 "/></g></g><g style="fill:#000000;fill-opacity:1;"><g transform="translate(96.485583, 255.221863)"><path style="stroke:none" d="M 11.65625 -28.25 L 11.65625 -21.15625 L 23.09375 -21.15625 L 23.09375 -14.546875 L 11.65625 -14.546875 L 11.65625 -6.84375 L 24.59375 -6.84375 L 24.59375 0 L 3.09375 0 L 3.09375 -35.09375 L 24.59375 -35.09375 L 24.59375 -28.25 Z M 11.65625 -28.25 "/></g></g><g style="fill:#000000;fill-opacity:1;"><g transform="translate(123.531392, 255.221863)"><path style="stroke:none" d="M 36.046875 -35.09375 L 23.59375 0 L 12.90625 0 L 0.453125 -35.09375 L 9.546875 -35.09375 L 18.25 -8.59375 L 27 -35.09375 Z M 36.046875 -35.09375 "/></g></g><g style="fill:#000000;fill-opacity:1;"><g transform="translate(160.02574, 255.221863)"><path style="stroke:none" d="M 24.953125 -6.203125 L 11.84375 -6.203125 L 9.75 0 L 0.796875 0 L 13.5 -35.09375 L 23.40625 -35.09375 L 36.09375 0 L 27.046875 0 Z M 22.75 -12.796875 L 18.40625 -25.65625 L 14.09375 -12.796875 Z M 22.75 -12.796875 "/></g></g><g style="fill:#000000;fill-opacity:1;"><g transform="translate(196.870036, 255.221863)"><path style="stroke:none" d="M 11.65625 -6.59375 L 22.84375 -6.59375 L 22.84375 0 L 3.09375 0 L 3.09375 -35.09375 L 11.65625 -35.09375 Z M 11.65625 -6.59375 "/></g></g><g style="fill:#000000;fill-opacity:1;"><g transform="translate(220.71634, 255.221863)"><path style="stroke:none" d="M 33.203125 -35.09375 L 21.046875 -11.59375 L 21.046875 0 L 12.5 0 L 12.5 -11.59375 L 0.34375 -35.09375 L 10.046875 -35.09375 L 16.84375 -20.40625 L 23.59375 -35.09375 Z M 33.203125 -35.09375 "/></g></g><g style="fill:#000000;fill-opacity:1;"><g transform="translate(254.261146, 255.221863)"><path style="stroke:none" d="M 12.203125 -7 L 27.296875 -7 L 27.296875 0 L 2.5 0 L 2.5 -6.5 L 17.5 -28.09375 L 2.5 -28.09375 L 2.5 -35.09375 L 27.296875 -35.09375 L 27.296875 -28.59375 Z M 12.203125 -7 "/></g></g><g style="fill:#000000;fill-opacity:1;"><g transform="translate(284.056535, 255.221863)"><path style="stroke:none" d="M 11.65625 -28.25 L 11.65625 -21.15625 L 23.09375 -21.15625 L 23.09375 -14.546875 L 11.65625 -14.546875 L 11.65625 -6.84375 L 24.59375 -6.84375 L 24.59375 0 L 3.09375 0 L 3.09375 -35.09375 L 24.59375 -35.09375 L 24.59375 -28.25 Z M 11.65625 -28.25 "/></g></g><g clip-rule="nonzero" clip-path="url(#8e12e13b01)"><path style=" stroke:none;fill-rule:nonzero;fill:#000000;fill-opacity:1;" d="M 228.730469 169.578125 L 228.722656 169.582031 C 242.265625 162.039062 251.425781 147.578125 251.425781 130.976562 C 251.425781 106.585938 231.65625 86.816406 207.265625 86.816406 L 127.757812 86.816406 L 138.332031 99.011719 C 143.773438 105.289062 151.671875 108.894531 159.980469 108.894531 L 207.265625 108.894531 C 219.460938 108.894531 229.347656 118.78125 229.347656 130.976562 C 229.347656 143.171875 219.460938 153.058594 207.265625 153.058594 L 185.183594 153.058594 L 204.328125 175.136719 L 224.472656 198.375 C 229.914062 204.652344 237.8125 208.257812 246.121094 208.257812 L 262.261719 208.257812 L 228.730469 169.578125 "/></g><g clip-rule="nonzero" clip-path="url(#53d7d0da43)"><path style=" stroke:none;fill-rule:nonzero;fill:#000000;fill-opacity:1;" d="M 204.835938 142.015625 L 194.261719 129.820312 C 188.820312 123.542969 180.921875 119.9375 172.613281 119.9375 L 112.5 119.9375 L 180.5 198.375 C 185.941406 204.652344 193.839844 208.257812 202.148438 208.257812 L 218.292969 208.257812 L 160.863281 142.015625 L 204.835938 142.015625 "/></g></g></svg>